<?xml version="1.0" encoding="UTF-8" standalone="no"?>
<!-- Created with Inkscape (http://www.inkscape.org/) -->

<svg
   xmlns:dc="http://purl.org/dc/elements/1.1/"
   xmlns:cc="http://creativecommons.org/ns#"
   xmlns:rdf="http://www.w3.org/1999/02/22-rdf-syntax-ns#"
   xmlns:svg="http://www.w3.org/2000/svg"
   xmlns="http://www.w3.org/2000/svg"
   xmlns:sodipodi="http://sodipodi.sourceforge.net/DTD/sodipodi-0.dtd"
   xmlns:inkscape="http://www.inkscape.org/namespaces/inkscape"
   width="594.28278"
   height="594.28278"
   id="svg2993"
   version="1.1"
   inkscape:version="0.48.2 r9819"
   sodipodi:docname="tea-logo-compact.svg">
  <title
     id="title2989">TEAJS Compact Logo</title>
  <defs
     id="defs2995" />
  <sodipodi:namedview
     id="base"
     pagecolor="#ffffff"
     bordercolor="#666666"
     borderopacity="1.0"
     inkscape:pageopacity="0.0"
     inkscape:pageshadow="2"
     inkscape:zoom="0.35"
     inkscape:cx="287.14144"
     inkscape:cy="297.14139"
     inkscape:document-units="px"
     inkscape:current-layer="layer1"
     showgrid="false"
     fit-margin-top="0"
     fit-margin-left="0"
     fit-margin-right="0"
     fit-margin-bottom="0"
     inkscape:window-width="779"
     inkscape:window-height="700"
     inkscape:window-x="0"
     inkscape:window-y="30"
     inkscape:window-maximized="0" />
  <metadata
     id="metadata2998">
    <rdf:RDF>
      <cc:Work
         rdf:about="">
        <dc:format>image/svg+xml</dc:format>
        <dc:type
           rdf:resource="http://purl.org/dc/dcmitype/StillImage" />
        <dc:title>TEAJS Compact Logo</dc:title>
        <dc:date>13/06/2012</dc:date>
        <dc:creator>
          <cc:Agent>
            <dc:title>Octávio Turra Barbosa</dc:title>
          </cc:Agent>
        </dc:creator>
        <dc:rights>
          <cc:Agent>
            <dc:title>All rights reserved (c) 2012</dc:title>
          </cc:Agent>
        </dc:rights>
        <dc:publisher>
          <cc:Agent>
            <dc:title>Ondřej Žára</dc:title>
          </cc:Agent>
        </dc:publisher>
        <dc:subject>
          <rdf:Bag>
            <rdf:li>TeaJS</rdf:li>
            <rdf:li>Logo</rdf:li>
          </rdf:Bag>
        </dc:subject>
        <dc:contributor>
          <cc:Agent>
            <dc:title>Octávio Turra Barbosa
Ondřej Žára</dc:title>
          </cc:Agent>
        </dc:contributor>
        <cc:license
           rdf:resource="http://creativecommons.org/licenses/by-sa/3.0/" />
      </cc:Work>
      <cc:License
         rdf:about="http://creativecommons.org/licenses/by-sa/3.0/">
        <cc:permits
           rdf:resource="http://creativecommons.org/ns#Reproduction" />
        <cc:permits
           rdf:resource="http://creativecommons.org/ns#Distribution" />
        <cc:requires
           rdf:resource="http://creativecommons.org/ns#Notice" />
        <cc:requires
           rdf:resource="http://creativecommons.org/ns#Attribution" />
        <cc:permits
           rdf:resource="http://creativecommons.org/ns#DerivativeWorks" />
        <cc:requires
           rdf:resource="http://creativecommons.org/ns#ShareAlike" />
      </cc:License>
    </rdf:RDF>
  </metadata>
  <g
     inkscape:label="Camada 1"
     inkscape:groupmode="layer"
     id="layer1"
     transform="translate(-62.858565,-235.22079)">
    <g
       id="g4831"
       transform="matrix(6.8873868,0,0,6.8873868,2028.6501,-5073.9278)"
       inkscape:export-filename="C:\Users\OctoFraguto\Documents\teajs\t17.png"
       inkscape:export-xdpi="90"
       inkscape:export-ydpi="90">
      <path
         inkscape:connector-curvature="0"
         id="path4295"
         d="m -242.27624,857.13661 -43.14283,0 0,-43.14284 0,-43.14283 43.14283,0 43.14284,0 0,43.14283 0,43.14284 z"
         style="fill:#eed94e"
         sodipodi:nodetypes="ccccccccc" />
      <path
         inkscape:connector-curvature="0"
         id="path4297"
         d="m -222.30693,851.59806 -0.44382,0.0158 -0.33449,-0.0278 c -0.18397,-0.0152 -0.46132,-0.0515 -0.61635,-0.0806 -0.15502,-0.0291 -0.41133,-0.0902 -0.56957,-0.13584 -0.15824,-0.0457 -0.41347,-0.13605 -0.56715,-0.20086 -0.15369,-0.0648 -0.41258,-0.19645 -0.57532,-0.29259 l -0.29587,-0.17477 -0.2689,-0.21553 -0.26888,-0.21552 -0.2353,-0.25434 -0.23534,-0.25433 -0.22916,-0.34158 c -0.12602,-0.18788 -0.27888,-0.44027 -0.33964,-0.56093 l -0.11052,-0.21931 1.29911,-0.78696 c 0.71452,-0.43284 1.30887,-0.79071 1.32082,-0.79529 0.0121,-0.005 0.0983,0.12264 0.1918,0.28273 0.0937,0.16008 0.26024,0.41065 0.37042,0.55685 l 0.20031,0.26583 0.17173,0.137 c 0.0945,0.0755 0.23894,0.17117 0.32108,0.21291 0.0821,0.0418 0.23376,0.10041 0.33691,0.13047 l 0.18761,0.0544 0.34786,-4e-4 0.34788,-4e-4 0.18633,-0.0387 c 0.10243,-0.0213 0.26382,-0.0729 0.35855,-0.11483 l 0.1722,-0.0761 0.16729,-0.16727 0.16728,-0.16729 0.0934,-0.20592 0.0933,-0.20592 0.0589,-0.24521 0.0589,-0.24519 0.0108,-5.79424 0.0108,-5.79422 1.61078,0 1.61076,0 -0.0108,6.00791 -0.0108,6.00792 -0.0561,0.27943 c -0.0309,0.1537 -0.10122,0.43477 -0.15632,0.62463 l -0.10014,0.34519 -0.1615,0.33933 -0.16152,0.33933 -0.15111,0.21615 c -0.083,0.11888 -0.22035,0.2969 -0.30497,0.39557 l -0.15389,0.17943 -0.26299,0.21172 -0.26301,0.21173 -0.25033,0.14479 c -0.13769,0.0797 -0.37615,0.19685 -0.52992,0.26051 l -0.27958,0.11577 -0.31289,0.0813 c -0.17209,0.0448 -0.46622,0.10351 -0.6536,0.1306 l -0.34068,0.0493 -0.44382,0.0158 z m 12.4925,-3.9e-4 c -0.26217,0.008 -0.55065,0.008 -0.64106,10e-4 -0.0904,-0.007 -0.32601,-0.0287 -0.52358,-0.0489 l -0.35921,-0.0369 -0.36405,-0.0757 -0.36404,-0.0756 -0.37807,-0.12184 -0.37805,-0.12184 -0.33636,-0.15804 c -0.185,-0.0869 -0.46535,-0.23597 -0.62301,-0.3312 l -0.28663,-0.17313 -0.31896,-0.25655 -0.31894,-0.25656 -0.25838,-0.27615 c -0.14211,-0.15189 -0.34405,-0.39517 -0.44877,-0.54061 -0.10472,-0.14545 -0.26337,-0.38712 -0.35255,-0.53706 l -0.16214,-0.27261 0.0406,-0.0377 c 0.0222,-0.0208 0.60754,-0.36503 1.30044,-0.76503 0.69288,-0.40002 1.27087,-0.72732 1.2844,-0.72732 0.0136,0 0.10796,0.12211 0.20988,0.27123 0.10189,0.14916 0.26609,0.36322 0.36486,0.47567 0.0988,0.11254 0.27635,0.29038 0.39465,0.3954 l 0.21507,0.19091 0.26202,0.1584 0.26202,0.1584 0.27352,0.0942 0.27352,0.0942 0.3123,0.0543 0.31231,0.0543 0.46026,-0.0172 0.46024,-0.0172 0.25646,-0.0678 0.25642,-0.0678 0.2367,-0.12319 0.23668,-0.12305 0.19961,-0.19833 0.19962,-0.19834 0.0865,-0.18364 0.0865,-0.18365 0.0336,-0.20827 0.0336,-0.20827 -0.0329,-0.23271 -0.0329,-0.23271 -0.0956,-0.20459 -0.0956,-0.20459 -0.15682,-0.16766 -0.15683,-0.16765 -0.26915,-0.17908 -0.26916,-0.17911 -0.47201,-0.22568 c -0.25961,-0.12413 -0.77526,-0.35464 -1.14593,-0.51224 -0.37066,-0.15759 -0.88105,-0.38713 -1.13419,-0.51007 -0.25314,-0.12292 -0.6008,-0.30848 -0.77257,-0.41232 -0.17177,-0.10377 -0.44827,-0.29059 -0.61444,-0.41502 l -0.30211,-0.22621 -0.25014,-0.24772 -0.25013,-0.24769 -0.19838,-0.26756 -0.19836,-0.26753 -0.17689,-0.36334 -0.17686,-0.36333 -0.0818,-0.28563 -0.0818,-0.28566 -0.051,-0.3432 -0.0509,-0.3432 1.3e-4,-0.47246 1.3e-4,-0.47246 0.0489,-0.30152 0.0489,-0.30151 0.0853,-0.26988 c 0.0469,-0.14843 0.13606,-0.38139 0.19817,-0.51767 l 0.11295,-0.24781 0.18638,-0.28212 0.18638,-0.28213 0.31445,-0.3123 0.31444,-0.31231 0.27931,-0.18544 c 0.15361,-0.10203 0.38398,-0.23773 0.51193,-0.30164 0.1279,-0.0639 0.38291,-0.16849 0.56657,-0.23243 l 0.33397,-0.11618 0.35321,-0.0682 0.35324,-0.0682 0.42003,-0.0337 0.42002,-0.0337 0.49622,0.0349 0.49624,0.0349 0.32624,0.0664 c 0.17943,0.0365 0.44793,0.10459 0.59667,0.15122 l 0.27046,0.0848 0.29588,0.14232 c 0.16271,0.0783 0.41422,0.2199 0.55887,0.31472 l 0.263,0.17238 0.37952,0.38056 0.37952,0.38055 0.26976,0.4042 c 0.14837,0.2223 0.26974,0.41463 0.26971,0.42737 -10e-6,0.0121 -0.54698,0.37484 -1.21545,0.80464 -0.66847,0.42979 -1.23512,0.78902 -1.25922,0.79828 l -0.0438,0.0168 -0.16132,-0.25583 -0.1613,-0.25585 -0.26427,-0.26369 -0.26425,-0.26369 -0.21607,-0.1054 -0.21606,-0.10539 -0.21131,-0.0551 -0.21131,-0.0551 -0.3452,-8.2e-4 -0.34517,-8.3e-4 -0.19726,0.0582 c -0.1085,0.0321 -0.2687,0.0969 -0.35603,0.14422 l -0.15876,0.0859 -0.17541,0.18947 -0.17541,0.18944 -0.0729,0.19018 -0.0729,0.19016 -0.0164,0.25837 -0.0165,0.25835 0.0413,0.18546 0.0412,0.18545 0.081,0.16052 0.081,0.16052 0.15082,0.16123 0.15083,0.16125 0.21625,0.14297 c 0.119,0.0786 0.3642,0.21689 0.54501,0.30721 0.1808,0.0903 0.71339,0.33032 1.18349,0.5333 l 0.85476,0.36908 0.54244,0.27373 c 0.29833,0.15056 0.67558,0.35711 0.83831,0.45897 0.16273,0.10189 0.42955,0.28669 0.59291,0.41069 l 0.29703,0.22549 0.26996,0.27358 0.26997,0.27359 0.16902,0.23013 0.16903,0.23012 0.17459,0.36162 0.17459,0.36163 0.0823,0.2862 0.0823,0.28622 0.0508,0.3642 0.0508,0.3642 0,0.4403 0,0.44031 -0.0356,0.25568 c -0.0195,0.14063 -0.071,0.39233 -0.11443,0.55932 l -0.0788,0.30361 -0.12777,0.29645 -0.12777,0.29646 -0.21548,0.32368 -0.2155,0.3237 -0.32431,0.31052 -0.32431,0.31053 -0.24076,0.16072 c -0.13249,0.0884 -0.38196,0.23261 -0.55453,0.32048 l -0.31376,0.15973 -0.39758,0.12926 -0.39757,0.12925 -0.32876,0.0664 c -0.1808,0.0367 -0.4545,0.0814 -0.60818,0.0996 -0.15369,0.0183 -0.49395,0.0394 -0.75613,0.047 z"
         style="fill:#31322f" />
      <path
         id="path4301"
         d="m -242.27624,783.15441 c -7.65407,0 -14.59914,2.15893 -19.73986,5.6649 -0.43635,1.66079 -0.6738,3.4055 -0.6738,5.20323 0,11.27427 9.13941,20.40119 20.41366,20.40119 1.76863,0 3.47918,-0.2391 5.1159,-0.66132 l 0,-2.44564 c 0,-0.82207 0.63424,-1.63555 1.43494,-1.82177 l 1.6845,-0.38681 0,-10.96796 -0.64884,-0.1747 c -2.32097,0.38469 -4.88381,0.59893 -7.5865,0.59893 -10.36011,0 -18.75411,-3.14055 -18.75411,-7.01251 0,-3.87197 8.394,-7.01252 18.75411,-7.01252 10.36012,0 18.75411,3.14055 18.75411,7.01252 0,2.68957 -4.0488,5.02516 -9.9947,6.20147 a 0.28870936,0.28870936 0 0 1 0.0499,0.16221 l 0,11.05531 1.55973,-0.36186 c 0.8007,-0.1862 1.44741,0.3259 1.44741,1.14796 l 0,0.8984 c 1.53404,-1.08981 2.9139,-2.38037 4.09271,-3.84316 0.68189,0.49209 1.47236,0.77363 2.32088,0.77363 2.53657,0 4.59183,-2.52214 4.59183,-5.63997 0,-2.24347 -1.06594,-4.17992 -2.60787,-5.09093 0.1293,-0.92843 0.19964,-1.86832 0.19964,-2.83247 0,-1.79764 -0.22498,-3.5425 -0.66132,-5.20323 -5.141,-3.50726 -12.09665,-5.6649 -19.75232,-5.6649 z m 19.54022,16.77014 c 0.32128,0.57729 0.51159,1.26978 0.51159,2.02139 0,1.97958 -1.2968,3.58113 -2.90733,3.58113 -0.0915,0 -0.18514,-0.003 -0.27451,-0.013 1.15725,-1.6946 2.06329,-3.58105 2.67025,-5.59006 z m -37.92,4.18005 c -6.28201,2.09143 -10.28169,5.23181 -10.28169,8.74692 0,6.29946 12.83197,11.4047 28.66147,11.4047 15.82951,0 28.66148,-5.10524 28.66148,-11.4047 0,-2.7045 -2.3743,-5.18288 -6.32624,-7.13727 -0.46244,0.69947 -1.04931,1.31281 -1.73442,1.74688 1.16581,1.14194 1.82177,2.40923 1.82177,3.73086 0,5.21116 -10.04318,9.43321 -22.42259,9.43321 -12.3794,0 -22.42258,-4.22205 -22.42258,-9.43321 0,-2.19608 1.78955,-4.22371 4.779,-5.82713 -0.26013,-0.40986 -0.50429,-0.83351 -0.7362,-1.26026 z m 36.78452,0.013 c -0.11247,0.20802 -0.22592,0.41571 -0.3369,0.58644 0.23506,-0.13255 0.43697,-0.30313 0.6114,-0.49911 -0.0912,-0.0312 -0.18225,-0.0565 -0.2745,-0.0874 z m -35.54921,2.00892 c -2.18308,1.30136 -3.45634,2.8602 -3.45634,4.54191 0,4.52787 9.223,8.19791 20.60081,8.19791 11.37782,0 20.60082,-3.67004 20.60082,-8.19791 0,-0.93852 -0.39317,-1.84279 -1.12299,-2.68272 -8.7e-4,-0.003 -0.0103,0.003 -0.013,0 -0.76149,0.23343 -1.58968,0.26624 -2.44565,0.013 -0.66765,-0.28972 -1.21693,-0.64144 -1.59715,0.24956 -1.07062,1.2093 -2.28331,2.26422 -3.60608,3.15687 l 0,3.18183 c 0,0.82207 -0.64673,1.63554 -1.44743,1.82176 l -3.81819,0.88592 c -0.80071,0.18621 -1.43495,-0.32589 -1.43495,-1.14796 l 0,-1.79679 c -5.21302,1.28687 -10.91453,0.65397 -15.55979,-2.13371 -2.69599,-1.48132 -4.96558,-3.59833 -6.70057,-6.08916 z"
         style="fill:#31322f;fill-opacity:1;fill-rule:nonzero;stroke:none"
         inkscape:connector-curvature="0" />
      <path
         style="fill:#31322f;fill-opacity:1;fill-rule:nonzero;stroke:none"
         d="m -242.27621,789.28567 c -7.21702,0 -13.3398,1.74665 -15.50262,4.17229 2.15941,2.42785 8.28134,4.18012 15.50262,4.18012 7.2213,0 13.34321,-1.75227 15.50263,-4.18012 -2.16281,-2.42564 -8.28559,-4.17229 -15.50263,-4.17229 z"
         id="path4303"
         inkscape:connector-curvature="0" />
      <text
         xml:space="preserve"
         style="font-size:22.59404564px;font-style:normal;font-variant:normal;font-weight:normal;font-stretch:normal;text-align:start;text-anchor:start;fill:#333333;fill-opacity:1;stroke:none;font-family:Arial;-inkscape-font-specification:Arial"
         x="-272.70471"
         y="851.61377"
         id="text4305"><tspan
           sodipodi:role="line"
           id="tspan4307"
           x="-272.70471"
           y="851.61377">TEA</tspan></text>
    </g>
  </g>
</svg>
