<?xml version="1.0" encoding="UTF-8" standalone="no"?>
<!-- Created with Inkscape (http://www.inkscape.org/) -->

<svg
   xmlns:dc="http://purl.org/dc/elements/1.1/"
   xmlns:cc="http://creativecommons.org/ns#"
   xmlns:rdf="http://www.w3.org/1999/02/22-rdf-syntax-ns#"
   xmlns:svg="http://www.w3.org/2000/svg"
   xmlns="http://www.w3.org/2000/svg"
   xmlns:xlink="http://www.w3.org/1999/xlink"
   xmlns:sodipodi="http://sodipodi.sourceforge.net/DTD/sodipodi-0.dtd"
   xmlns:inkscape="http://www.inkscape.org/namespaces/inkscape"
   width="757.88208"
   height="467.14285"
   id="svg2985"
   version="1.1"
   inkscape:version="0.48.2 r9819"
   sodipodi:docname="tea-logo-default.svg">
  <title
     id="title2998">TEAJS Default Logo</title>
  <defs
     id="defs2987">
    <radialGradient
       inkscape:collect="always"
       xlink:href="#linearGradient4157"
       id="radialGradient4947"
       gradientUnits="userSpaceOnUse"
       gradientTransform="matrix(1.2123894,0,0,0.61637932,43.084707,250.37971)"
       cx="-202.85716"
       cy="806.29333"
       fx="-202.85716"
       fy="806.29333"
       r="130.94905" />
    <linearGradient
       inkscape:collect="always"
       id="linearGradient4157">
      <stop
         style="stop-color:#ffffff;stop-opacity:1;"
         offset="0"
         id="stop4159" />
      <stop
         style="stop-color:#ffffff;stop-opacity:0;"
         offset="1"
         id="stop4161" />
    </linearGradient>
    <radialGradient
       inkscape:collect="always"
       xlink:href="#linearGradient4157"
       id="radialGradient4949"
       gradientUnits="userSpaceOnUse"
       gradientTransform="matrix(1.2123894,0,0,0.05454685,43.084707,715.75187)"
       cx="-202.85716"
       cy="806.29333"
       fx="-202.85716"
       fy="806.29333"
       r="130.94905" />
    <radialGradient
       inkscape:collect="always"
       xlink:href="#linearGradient4157"
       id="radialGradient4951"
       gradientUnits="userSpaceOnUse"
       gradientTransform="matrix(1.2123894,0,0,0.01636406,43.084707,747.37912)"
       cx="-202.85716"
       cy="806.29333"
       fx="-202.85716"
       fy="806.29333"
       r="130.94905" />
    <radialGradient
       r="130.94905"
       fy="806.29333"
       fx="-202.85716"
       cy="806.29333"
       cx="-202.85716"
       gradientTransform="matrix(1.2123894,0,0,0.01636406,43.084707,747.37912)"
       gradientUnits="userSpaceOnUse"
       id="radialGradient3755"
       xlink:href="#linearGradient4157"
       inkscape:collect="always" />
  </defs>
  <sodipodi:namedview
     id="base"
     pagecolor="#ffffff"
     bordercolor="#666666"
     borderopacity="1.0"
     inkscape:pageopacity="0.0"
     inkscape:pageshadow="2"
     inkscape:zoom="0.35"
     inkscape:cx="378.94103"
     inkscape:cy="233.57144"
     inkscape:document-units="mm"
     inkscape:current-layer="layer1"
     showgrid="false"
     units="mm"
     fit-margin-top="0"
     fit-margin-left="0"
     fit-margin-right="0"
     fit-margin-bottom="0"
     inkscape:window-width="1366"
     inkscape:window-height="716"
     inkscape:window-x="-8"
     inkscape:window-y="22"
     inkscape:window-maximized="1" />
  <metadata
     id="metadata2990">
    <rdf:RDF>
      <cc:Work
         rdf:about="">
        <dc:format>image/svg+xml</dc:format>
        <dc:type
           rdf:resource="http://purl.org/dc/dcmitype/StillImage" />
        <dc:title>TEAJS Default Logo</dc:title>
        <dc:date>13/06/2012</dc:date>
        <dc:creator>
          <cc:Agent>
            <dc:title>Octávio Turra Barbosa</dc:title>
          </cc:Agent>
        </dc:creator>
        <dc:rights>
          <cc:Agent>
            <dc:title>All rights reserved (c) 2012. </dc:title>
          </cc:Agent>
        </dc:rights>
        <dc:publisher>
          <cc:Agent>
            <dc:title>Ondřej Žára</dc:title>
          </cc:Agent>
        </dc:publisher>
        <dc:subject>
          <rdf:Bag>
            <rdf:li>TeaJS</rdf:li>
            <rdf:li>Logo</rdf:li>
          </rdf:Bag>
        </dc:subject>
        <dc:contributor>
          <cc:Agent>
            <dc:title>Octávio Turra Barbosa
Ondřej Žára</dc:title>
          </cc:Agent>
        </dc:contributor>
        <cc:license
           rdf:resource="http://creativecommons.org/licenses/by-sa/3.0/" />
      </cc:Work>
      <cc:License
         rdf:about="http://creativecommons.org/licenses/by-sa/3.0/">
        <cc:permits
           rdf:resource="http://creativecommons.org/ns#Reproduction" />
        <cc:permits
           rdf:resource="http://creativecommons.org/ns#Distribution" />
        <cc:requires
           rdf:resource="http://creativecommons.org/ns#Notice" />
        <cc:requires
           rdf:resource="http://creativecommons.org/ns#Attribution" />
        <cc:permits
           rdf:resource="http://creativecommons.org/ns#DerivativeWorks" />
        <cc:requires
           rdf:resource="http://creativecommons.org/ns#ShareAlike" />
      </cc:License>
    </rdf:RDF>
  </metadata>
  <g
     inkscape:label="Layer 1"
     inkscape:groupmode="layer"
     id="layer1"
     transform="translate(3.9410308,-298.79077)">
    <g
       id="g4923"
       transform="matrix(2.2867132,0,0,2.2867132,838.87615,-1062.3052)"
       inkscape:export-filename="C:\Users\OctoFraguto\Documents\teajs\t19.png"
       inkscape:export-xdpi="90"
       inkscape:export-ydpi="90">
      <rect
         ry="5.1402106"
         y="595.21936"
         x="-368.57144"
         height="204.28572"
         width="331.42856"
         id="rect4925"
         style="fill:#eed94e;fill-opacity:1;fill-rule:nonzero;stroke:none" />
    </g>
    <g
       id="g4933"
       transform="matrix(1.6532618,0,0,1.6532618,-33.813648,5.5575372)">
      <path
         inkscape:connector-curvature="0"
         style="fill:#31322f;fill-opacity:1;fill-rule:nonzero;stroke:none"
         d="m 137.5,564.9375 c -19.16926,0 -36.56287,5.40696 -49.4375,14.1875 -1.092866,4.15938 -1.6875,8.52888 -1.6875,13.03125 0,28.2358 22.8892,51.09375 51.125,51.09375 4.42941,0 8.71341,-0.59884 12.8125,-1.65625 l 0,-6.125 c 0,-2.05883 1.58843,-4.09614 3.59375,-4.5625 l 4.21875,-0.96875 0,-27.46875 -1.625,-0.4375 c -5.81274,0.96345 -12.23123,1.5 -19,1.5 -25.94641,0 -46.96875,-7.86536 -46.96875,-17.5625 0,-9.69714 21.02234,-17.5625 46.96875,-17.5625 25.94641,0 46.96875,7.86536 46.96875,17.5625 0,6.73588 -10.14001,12.58527 -25.03125,15.53125 a 0.72305836,0.72305836 0 0 1 0.125,0.40625 l 0,27.6875 3.90625,-0.90625 c 2.00532,-0.46636 3.625,0.81617 3.625,2.875 l 0,2.25 c 3.84193,-2.72938 7.29771,-5.9615 10.25,-9.625 1.70774,1.23242 3.68742,1.9375 5.8125,1.9375 6.35273,0 11.5,-6.31657 11.5,-14.125 0,-5.61869 -2.6696,-10.46843 -6.53125,-12.75 0.32385,-2.32519 0.5,-4.67914 0.5,-7.09375 0,-4.50214 -0.56349,-8.87206 -1.65625,-13.03125 C 174.09332,570.34121 156.67326,564.9375 137.5,564.9375 z m 48.9375,42 c 0.80463,1.44581 1.28125,3.18008 1.28125,5.0625 0,4.95773 -3.24777,8.96875 -7.28125,8.96875 -0.22926,0 -0.46367,-0.006 -0.6875,-0.0312 2.89827,-4.24403 5.16741,-8.96854 6.6875,-14 z m -94.96875,10.46875 c -15.733003,5.23786 -25.75,13.1028 -25.75,21.90625 0,15.77666 32.137039,28.5625 71.78125,28.5625 39.64421,0 71.78125,-12.78584 71.78125,-28.5625 0,-6.77331 -5.9463,-12.98029 -15.84375,-17.875 -1.15815,1.75182 -2.62797,3.28793 -4.34375,4.375 2.9197,2.85995 4.5625,6.03378 4.5625,9.34375 0,13.05109 -25.15267,23.625 -56.15625,23.625 -31.00358,0 -56.15625,-10.57391 -56.15625,-23.625 0,-5.49998 4.481838,-10.57805 11.96875,-14.59375 -0.651466,-1.02649 -1.262949,-2.08747 -1.84375,-3.15625 z m 92.125,0.0312 c -0.28161,0.52101 -0.5658,1.04114 -0.84375,1.46875 0.58871,-0.33198 1.09438,-0.75919 1.53125,-1.25 -0.22854,-0.0782 -0.45646,-0.14164 -0.6875,-0.21875 z M 94.5625,622.4687 c -5.467415,3.25922 -8.65625,7.16325 -8.65625,11.375 0,11.33983 23.09858,20.53125 51.59375,20.53125 28.49517,0 51.59375,-9.19142 51.59375,-20.53125 0,-2.35049 -0.9847,-4.61518 -2.8125,-6.71875 -0.004,-0.005 -0.0269,0.005 -0.0312,0 -1.90715,0.58463 -3.98128,0.66679 -6.125,0.0312 -1.67212,-0.72559 -3.04777,-1.60642 -4,0.625 -2.68131,3.02865 -5.71843,5.67064 -9.03125,7.90625 l 0,7.96875 c 0,2.05883 -1.61968,4.09614 -3.625,4.5625 l -9.5625,2.21875 c -2.00532,0.46636 -3.59375,-0.81617 -3.59375,-2.875 l 0,-4.5 c -13.05579,3.22289 -27.33493,1.63783 -38.96875,-5.34375 -6.75196,-3.70992 -12.436052,-9.01184 -16.78125,-15.25 z"
         transform="matrix(1.3831526,0,0,1.3831526,-19.473776,-514.51323)"
         id="path4935" />
      <text
         xml:space="preserve"
         style="font-size:64.61465454px;font-style:normal;font-variant:normal;font-weight:bold;font-stretch:normal;text-align:justify;text-anchor:start;fill:#31322f;fill-opacity:1;fill-rule:nonzero;stroke:none;font-family:Kalinga;-inkscape-font-specification:Kalinga Bold"
         x="254.99553"
         y="353.17355"
         id="text4937"><tspan
           sodipodi:role="line"
           id="tspan4939"
           x="254.99553"
           y="353.17355"><tspan
             style="font-weight:normal;fill:#31322f;fill-opacity:1;-inkscape-font-specification:Kalinga"
             id="tspan4941">TEA</tspan><tspan
             style="font-style:normal;font-variant:normal;font-weight:bold;font-stretch:normal;fill:#31322f;fill-opacity:1;font-family:Arial;-inkscape-font-specification:Arial Bold"
             id="tspan4943">JS</tspan></tspan></text>
      <path
         inkscape:connector-curvature="0"
         id="path4945"
         d="m 170.70982,288.12054 c -25.00008,0 -46.20963,6.05044 -53.70167,14.45291 7.48027,8.41018 28.68685,14.48012 53.70167,14.48012 25.01482,0 46.2214,-6.06994 53.70167,-14.48012 -7.49204,-8.40247 -28.70159,-14.45291 -53.70167,-14.45291 z"
         style="fill:#31322f;fill-opacity:1;fill-rule:nonzero;stroke:none" />
    </g>
  </g>
</svg>
